# xmcd
#
# Track frame offsets:
#	150
#	9145
#	17520
#	26790
#	34245
#	43537
#	52280
#	63955
#	75010
#	85092
#	95645
#	105265
#
# Disc length: 1527 seconds
#
# Revision: 0
# Processed by: cddbd v1.4PL0 Copyright (c) Steve Scherf et al.
# Submitted via: dBpowerAMP V4.0
#
DISCID=7f05f50c
DTITLE=Fats Domino - 36 All-Time Greatest Hits Volume 2
DYEAR=1999
DGENRE=Blues
TTITLE0=The Big Beat
TTITLE1=Valley Of Tears
TTITLE2=It's You I Love
TTITLE3=Whole Lotta Loving
TTITLE4=I'm Ready
TTITLE5=Wait And See
TTITLE6=Sick And Tired
TTITLE7=When The Saints Go Marching In
TTITLE8=Margie (Version 2)
TTITLE9=I want To Walk You Home
TTITLE10=When I See You
TTITLE11=I'm Gonna Be A Wheel Someday
EXTD=
EXTT0=
EXTT1=
EXTT2=
EXTT3=
EXTT4=
EXTT5=
EXTT6=
EXTT7=
EXTT8=
EXTT9=
EXTT10=
EXTT11=
PLAYORDER=
